# xmcd
#
# Track frame offsets:
#	150
#	15475
#	29226
#	46664
#	71962
#	92729
#	109118
#	125977
#	147310
#	167561
#	181904
#	196267
#	209544
#
# Disc length: 3092 seconds
# Revision: 0
# Processed by: cddbd v1.5.2PL0 Copyright (c) Steve Scherf et al.
# Submitted via: dBpowerAMP V12.0
#
DISCID=c00c120d
DTITLE=Nanette Workman - Just Gettin' Started
DYEAR=2012
DGENRE=Blues Female
TTITLE0=Just Gettin' Started
TTITLE1=It's All Over Now
TTITLE2=Hurt My Heart
TTITLE3=Wild Horses
TTITLE4=When Love Leaves the Room
TTITLE5=What the Heck
TTITLE6=Tell Somebody
TTITLE7=Still Rainin'
TTITLE8=Memphis Jane
TTITLE9=Young Blood
TTITLE10=Isn't It So
TTITLE11=Man with a Heart
TTITLE12=Georgia on My Mind
EXTD=
EXTT0=
EXTT1=
EXTT2=
EXTT3=
EXTT4=
EXTT5=
EXTT6=
EXTT7=
EXTT8=
EXTT9=
EXTT10=
EXTT11=
EXTT12=
PLAYORDER=
